<svg width="175" height="195" viewBox="0 0 175 195" fill="none" xmlns="http://www.w3.org/2000/svg">
<path fill-rule="evenodd" clip-rule="evenodd" d="M67.4318 109.714L88.703 194.799H174.907V35.8251H156.995V0L121.169 35.8251H114.833C88.9 35.8251 64.0292 46.1269 45.6919 64.4642C27.3545 82.8016 17.0527 107.672 17.0527 133.605V194.799H75.2685L53.9974 109.714C53.9974 99.0253 58.2436 88.774 65.8019 81.2157C73.3603 73.6573 83.6116 69.4111 94.3006 69.4111H98.7788V82.8455H94.3006C87.1746 82.8455 80.3404 85.6763 75.3015 90.7152C70.2626 95.7541 67.4318 102.588 67.4318 109.714ZM131.249 80.5039L121.072 68.8939L129.904 62.4118L138.507 72.2253L147.109 62.4118L155.941 68.8939L145.764 80.5039L155.938 92.1109L147.106 98.593L138.507 88.7825L129.907 98.593L121.075 92.1109L131.249 80.5039Z" fill="white"/>
<path d="M45.4452 88.9085L14.4961 67.2676L2.99936 83.7093" stroke="white" stroke-width="7"/>
<path d="M54.8177 74.3643L54.8457 36.5996L34.7832 36.5847" stroke="white" stroke-width="7"/>
</svg>
