<svg width="591" height="89" viewBox="0 0 591 89" fill="none" xmlns="http://www.w3.org/2000/svg">
<path d="M357.219 42.9442V50.4128H382.156C385.379 50.4134 388.516 51.4533 391.1 53.3777C393.683 55.3021 395.575 58.0081 396.494 61.0928V89.0002H349.114V62.8603H341.633V89.0002H307.969V0.622559H346.826C343.466 4.63765 341.628 9.70506 341.633 14.9372V29.8743H349.114V14.9372C349.115 11.7191 350.157 8.58725 352.084 6.00792C354.012 3.42858 356.722 1.53972 359.812 0.622559H396.494V48.1286C392.472 44.7738 387.396 42.9385 382.156 42.9442H357.219Z" fill="white"/>
<path d="M475.043 0.622559H423.923C418.963 0.622559 414.206 2.58971 410.699 6.09126C407.191 9.59282 405.221 14.3419 405.221 19.2939V70.3289C405.221 75.2808 407.191 80.0299 410.699 83.5315C414.206 87.033 418.963 89.0002 423.923 89.0002H475.043C480.004 89.0002 484.761 87.033 488.268 83.5315C491.776 80.0299 493.746 75.2808 493.746 70.3289V19.2939C493.746 14.3419 491.776 9.59282 488.268 6.09126C484.761 2.58971 480.004 0.622559 475.043 0.622559ZM453.224 73.4407H445.743V16.182H453.224V73.4407Z" fill="white"/>
<path d="M572.297 0.622559H521.177C516.217 0.622559 511.46 2.58971 507.952 6.09126C504.445 9.59282 502.475 14.3419 502.475 19.2939V70.3289C502.475 75.2808 504.445 80.0299 507.952 83.5315C511.46 87.033 516.217 89.0002 521.177 89.0002H572.297C577.258 89.0002 582.015 87.033 585.522 83.5315C589.029 80.0299 591 75.2808 591 70.3289V19.2939C591 14.3419 589.029 9.59282 585.522 6.09126C582.015 2.58971 577.258 0.622559 572.297 0.622559ZM550.478 73.4407H542.997V16.182H550.478V73.4407Z" fill="white"/>
<path d="M201.988 0.622559V70.3289C201.988 75.2808 200.018 80.0299 196.51 83.5315C193.003 87.033 188.246 89.0002 183.286 89.0002H132.165C127.205 89.0002 122.448 87.033 118.941 83.5315C115.433 80.0299 113.463 75.2808 113.463 70.3289V0.622559H153.985V73.4407H161.466V0.622559H201.988Z" fill="white"/>
<path d="M56.731 60.3706H104.111V0H15.5854V10.5804H0L15.5854 24.2727V69.7063C15.5854 74.6582 17.5559 79.4074 21.0633 82.9089C24.5707 86.4105 29.3278 88.3776 34.288 88.3776H104.111V67.8392H56.731C50.7787 67.8392 45.0703 65.4786 40.8614 61.2767C36.6525 57.0749 34.288 51.3759 34.288 45.4336V42.9441H41.769V45.4336C41.769 49.3951 43.3453 53.1944 46.1513 55.9957C48.9572 58.7969 52.7628 60.3706 56.731 60.3706ZM38.0285 18.049C37.2887 18.049 36.5655 17.8299 35.9504 17.4196C35.3352 17.0093 34.8558 16.4261 34.5727 15.7437C34.2896 15.0614 34.2155 14.3105 34.3598 13.5862C34.5042 12.8618 34.8604 12.1964 35.3835 11.6742C35.9067 11.1519 36.5732 10.7963 37.2987 10.6522C38.0243 10.5081 38.7764 10.582 39.4599 10.8647C40.1434 11.1473 40.7276 11.6259 41.1386 12.24C41.5496 12.8541 41.769 13.5761 41.769 14.3147C41.769 15.3051 41.3749 16.2549 40.6734 16.9552C39.9719 17.6555 39.0205 18.049 38.0285 18.049Z" fill="white"/>
<path d="M210.715 70.3289C210.715 75.2808 212.685 80.0299 216.193 83.5315C219.7 87.033 224.457 89.0002 229.417 89.0002H299.24V68.4617H251.86C245.908 68.4617 240.2 66.1011 235.991 61.8993C231.782 57.6974 229.417 51.9985 229.417 46.0561V43.5666H236.898V46.0561C236.898 50.0177 238.475 53.817 241.281 56.6182C244.087 59.4195 247.892 60.9932 251.86 60.9932H299.24V0.622559H210.715V70.3289Z" fill="white"/>
</svg>
