<svg width="591" height="88" viewBox="0 0 591 88" fill="white" xmlns="http://www.w3.org/2000/svg">
<path d="M358.932 42.0817V49.5079H383.686C386.886 49.5085 390 50.5425 392.565 52.456C395.129 54.3695 397.007 57.0601 397.919 60.1273V87.8764H350.887V61.8848H343.461V87.8764H310.043V0H348.616C345.28 3.99232 343.455 9.03099 343.461 14.2335V29.0859H350.887V14.2335C350.888 11.0336 351.922 7.91953 353.835 5.35482C355.749 2.79011 358.439 0.911964 361.506 0L397.919 0V47.2367C393.927 43.9009 388.888 42.076 383.686 42.0817H358.932Z"/>
<path d="M475.895 0H425.149C420.226 0 415.503 1.956 412.022 5.43769C408.54 8.91939 406.584 13.6416 406.584 18.5654V69.311C406.584 74.2349 408.54 78.9571 412.022 82.4388C415.503 85.9205 420.226 87.8764 425.149 87.8764H475.895C480.819 87.8764 485.541 85.9205 489.023 82.4388C492.504 78.9571 494.46 74.2349 494.46 69.311V18.5654C494.46 13.6416 492.504 8.91939 489.023 5.43769C485.541 1.956 480.819 0 475.895 0V0ZM454.235 72.4052H446.809V15.4712H454.235V72.4052Z"/>
<path d="M572.434 0H521.688C516.765 0 512.042 1.956 508.561 5.43769C505.079 8.91939 503.123 13.6416 503.123 18.5654V69.311C503.123 74.2349 505.079 78.9571 508.561 82.4388C512.042 85.9205 516.765 87.8764 521.688 87.8764H572.434C577.358 87.8764 582.08 85.9205 585.562 82.4388C589.044 78.9571 591 74.2349 591 69.311V18.5654C591 13.6416 589.044 8.91939 585.562 5.43769C582.08 1.956 577.358 0 572.434 0V0ZM550.774 72.4052H543.348V15.4712H550.774V72.4052Z"/>
<path d="M204.839 0V69.311C204.839 74.2349 202.883 78.9571 199.402 82.4388C195.92 85.9205 191.198 87.8764 186.274 87.8764H135.528C130.604 87.8764 125.882 85.9205 122.401 82.4388C118.919 78.9571 116.963 74.2349 116.963 69.311V0H157.188V72.4052H164.614V0H204.839Z"/>
<path d="M60.6471 59.4094L107.68 47.6513V0H19.8031V9.90157H0L19.8031 29.7047V33.2074C19.8031 47.5424 25.4977 61.2903 35.6341 71.4267C45.7705 81.563 59.5183 87.2576 73.8533 87.2576H107.68V55.0775L60.6471 66.8356C54.7385 66.8356 49.0719 64.4884 44.8938 60.3104C40.7158 56.1323 38.3686 50.4657 38.3686 44.5571V42.0817H45.7948V44.5571C45.7948 48.4962 47.3596 52.2739 50.1449 55.0593C52.9303 57.8446 56.708 59.4094 60.6471 59.4094ZM51.9832 24.067C43.5793 30.0946 34.2656 20.7747 40.2932 12.377C40.4445 12.1637 40.6307 11.9775 40.844 11.8262C49.2479 5.79861 58.5616 15.1185 52.534 23.5162C52.3827 23.7295 52.1965 23.9157 51.9832 24.067Z"/>
<path d="M213.502 69.311C213.502 74.2349 215.458 78.9571 218.94 82.4388C222.421 85.9205 227.144 87.8764 232.067 87.8764H301.378V55.0775L254.346 67.4545C248.437 67.4545 242.771 65.1073 238.593 60.9292C234.415 56.7512 232.067 51.0846 232.067 45.1759V42.7005H239.494V45.1759C239.494 49.115 241.058 52.8928 243.844 55.6781C246.629 58.4635 250.407 60.0283 254.346 60.0283L301.378 47.6513V0H213.502V69.311Z"/>
</svg>
