<svg width="108" height="88" viewBox="0 0 108 88" fill="none" xmlns="http://www.w3.org/2000/svg">
<path d="M60.6471 59.4094L107.68 47.6513V0H19.8031V9.90157H0L19.8031 29.7047V33.2074C19.8031 47.5424 25.4977 61.2903 35.6341 71.4267C45.7705 81.563 59.5183 87.2576 73.8533 87.2576H107.68V55.0775L60.6471 66.8356C54.7385 66.8356 49.0719 64.4884 44.8938 60.3104C40.7158 56.1323 38.3686 50.4657 38.3686 44.5571V42.0817H45.7948V44.5571C45.7948 48.4962 47.3596 52.2739 50.1449 55.0593C52.9303 57.8446 56.708 59.4094 60.6471 59.4094ZM51.9832 24.067C43.5793 30.0946 34.2656 20.7747 40.2932 12.377C40.4445 12.1637 40.6307 11.9775 40.844 11.8262C49.2479 5.79861 58.5616 15.1185 52.534 23.5162C52.3827 23.7295 52.1965 23.9157 51.9832 24.067V24.067Z" fill="#21C49C"/>
</svg>
