<svg width="80" height="56" viewBox="0 0 80 56" fill="none" xmlns="http://www.w3.org/2000/svg">
<path d="M74.8256 12.12L74.2094 12.9076L74.2094 12.9076L74.8256 12.12ZM78.596 15.9676C79.1442 15.9007 79.5344 15.402 79.4674 14.8538L78.3766 5.92015C78.3096 5.37194 77.811 4.98179 77.2627 5.04873C76.7145 5.11567 76.3244 5.61435 76.3913 6.16256L77.361 14.1036L69.42 15.0732C68.8717 15.1402 68.4816 15.6389 68.5485 16.1871C68.6155 16.7353 69.1142 17.1254 69.6624 17.0585L78.596 15.9676ZM74.2094 12.9076L77.8586 15.7626L79.091 14.1874L75.4418 11.3324L74.2094 12.9076ZM1.2998 2.5H27.6006V0.5H1.2998V2.5ZM27.6006 2.5H44.0163V0.5H27.6006V2.5ZM75.4418 11.3324C66.4703 4.31345 55.4072 0.5 44.0163 0.5V2.5C54.9605 2.5 65.5897 6.16391 74.2094 12.9076L75.4418 11.3324Z" fill="#666666"/>
<path d="M4.94878 43.555L5.56497 42.7674L5.56497 42.7674L4.94878 43.555ZM1.1784 39.7074C0.630187 39.7743 0.240038 40.273 0.306979 40.8212L1.39784 49.7548C1.46478 50.3031 1.96346 50.6932 2.51167 50.6263C3.05989 50.5593 3.45003 50.0606 3.38309 49.5124L2.41344 41.5714L10.3545 40.6018C10.9027 40.5348 11.2928 40.0361 11.2259 39.4879C11.1589 38.9397 10.6603 38.5496 10.112 38.6165L1.1784 39.7074ZM5.56497 42.7674L1.91579 39.9124L0.683419 41.4876L4.3326 44.3426L5.56497 42.7674ZM78.4746 53.175H52.1739V55.175H78.4746V53.175ZM52.1739 53.175H35.7582V55.175H52.1739V53.175ZM4.3326 44.3426C13.3041 51.3615 24.3672 55.175 35.7582 55.175V53.175C24.8139 53.175 14.1847 49.5111 5.56497 42.7674L4.3326 44.3426Z" fill="#666666"/>
</svg>
