<svg width="100" height="96" viewBox="0 0 100 96" fill="none" xmlns="http://www.w3.org/2000/svg">
<path d="M49.9061 0.0200195C22.5138 0.0200195 0.299805 22.0455 0.299805 49.216C0.299805 70.9475 14.5138 89.3838 34.2348 95.8947C36.7154 96.3479 37.6208 94.8289 37.6208 93.5243C37.6208 92.3544 37.5774 89.2613 37.5526 85.1575C23.7541 88.1282 20.8394 78.5609 20.8394 78.5609C18.5882 72.8769 15.3324 71.364 15.3324 71.364C10.8239 68.3138 15.6673 68.375 15.6673 68.375C20.6471 68.7242 23.2642 73.4465 23.2642 73.4465C27.6921 80.9619 34.8797 78.7937 37.7076 77.5319C38.1541 74.353 39.4379 72.1848 40.858 70.9537C29.844 69.7103 18.2595 65.4902 18.2595 46.6435C18.2595 41.2719 20.1944 36.8803 23.3696 33.438C22.8549 32.1947 21.1557 27.1905 23.8533 20.4224C23.8533 20.4224 28.0208 19.0994 37.4968 25.4633C41.4534 24.373 45.6952 23.8279 49.9185 23.8095C54.1294 23.834 58.3774 24.373 62.3402 25.4694C71.81 19.1055 75.9713 20.4285 75.9713 20.4285C78.6751 27.2028 76.9759 32.2008 76.4674 33.4442C79.6488 36.8864 81.5651 41.278 81.5651 46.6497C81.5651 65.5453 69.9682 69.7042 58.917 70.923C60.6968 72.442 62.2844 75.4433 62.2844 80.0309C62.2844 86.6092 62.2224 91.9134 62.2224 93.5243C62.2224 94.8412 63.1154 96.3724 65.6333 95.8885C85.3232 89.3715 99.5248 70.9414 99.5248 49.216C99.5248 22.0455 77.3108 0.0200195 49.9061 0.0200195Z" fill="#1F1F1F"/>
</svg>
