
<svg id="Layer_1" data-name="Layer 1" xmlns="http://www.w3.org/2000/svg" viewBox="0 0 924.29 384.65">
    <defs>
        <style>
        .cls-1{
            fill:#1f1f1f;
        }
        </style>
    </defs>
    <title>Artboard 1</title>
    <rect class="cls-1" x="290.24" y="222.45" width="11.37" height="157.55"/>
    <rect class="cls-1" x="328.16" y="222.45" width="11.37" height="157.55"/>
    <path class="cls-1" d="M217.31,272.19c-18.73,0-33.9,8.1-43.26,21.39-6.24,9-9.59,20.7-9.59,34,0,13,3.56,24.75,9.59,33.76,9.36,13.5,24.53,21.6,43.26,21.6,18.51,0,33.9-7.87,43-21.6,6-9,9.59-20.72,9.59-33.76,0-13.29-3.35-25-9.59-34C251,280.29,235.82,272.19,217.31,272.19Zm33.22,83.06c-7.35,10.58-18.73,17.1-33.22,17.1-14.71,0-26.09-6.52-33.45-17.1-5.13-7.43-7.58-16.66-7.58-27.68s2.45-20.26,7.58-27.91c7.36-10.58,18.74-16.89,33.45-16.89,14.49,0,25.87,6.31,33.22,16.89,5.14,7.65,7.59,16.87,7.59,27.91S255.67,347.82,250.53,355.25Z"/>
    <path class="cls-1" d="M79,230.55c31,0,54.42,18.91,57.32,48.17h12.49c-2-34.44-30.33-59.42-69.81-59.42-34.11,0-60.65,19.36-71.13,48.84a100.9,100.9,0,0,0,0,66.18c10.48,29.49,37,48.84,69.35,48.84,38.14,0,64.67-23.64,69.14-59.42H133.91c-3.34,29-25.2,48.17-55.76,48.17-27.65,0-49.28-16.66-58.64-42.09a85.21,85.21,0,0,1-4.69-28.58,91.43,91.43,0,0,1,4.69-28.6C28.42,247.21,50.5,230.55,79,230.55Z"/>
    <path class="cls-1" d="M918.33,324.19c0-32.19-18.07-52-46.61-52-17,0-31.45,7.43-40.14,20.26-6.46,9.23-10,21.16-10,35.33s3.34,26.34,9.58,35.35c8.7,12.6,22.75,19.8,41.26,19.8,23.41,0,41.48-15.08,45.71-35.56H907c-4.23,15.76-17.61,25-34.56,25-13.82,0-24.52-5.62-31.21-15.3-4.91-7-7.59-16.21-7.81-27.23h85Zm-84.51-4.28c.89-8.78,3.34-16,7.36-21.83,6.9-9.9,17.84-15.54,30.54-15.54,20.74,0,33.68,13.74,34.79,37.37Z"/>
    <rect class="cls-1" x="686.97" y="228.08" width="13.82" height="25.66"/><rect class="cls-1" x="688.08" y="275.12" width="11.37" height="104.89"/>
    <polygon class="cls-1" points="769.36 365.83 768.47 371.46 765.8 371.46 764.9 365.83 729.22 275.12 716.73 275.12 758.88 380.01 775.39 380.01 817.31 275.12 804.83 275.12 769.36 365.83"/>
    <path class="cls-1" d="M613.93,244.06l-11.37,5.86v25.2H578.69V285.7h23.87v62.8c0,22.06,10.48,34.43,30.77,34.43,19.63,0,31.23-13.27,31.23-36.45V327.34H653.18V346c0,17.56-6.69,26.33-19.85,26.33-12.72,0-19.4-9-19.4-23.85V285.7h50.63V275.12H613.93Z"/>
    <path class="cls-1" d="M410,272.19c-16.95,0-31.44,7.43-40.14,20.26-6.47,9.23-10,21.16-10,35.33s3.34,26.34,9.58,35.35c8.7,12.6,22.75,19.8,41.26,19.8,23.41,0,41.48-15.08,45.72-35.56H445.22c-4.23,15.76-17.62,25-34.56,25-13.83,0-24.54-5.62-31.22-15.3-4.91-7-7.58-16.21-7.81-27.23h85v-5.63C456.59,292,438.54,272.19,410,272.19Zm-37.92,47.72c.91-8.78,3.35-16,7.37-21.83,6.91-9.9,17.84-15.54,30.55-15.54,20.74,0,33.67,13.74,34.79,37.37Z"/>
    <path class="cls-1" d="M523.06,282.77c20.29,0,34.12,11.48,36.35,30.16h11.38c-1.57-24.31-20.74-40.74-47.73-40.74-18.29,0-32.78,7.43-41.48,20.26-6.46,9.23-9.8,21.16-9.8,35.33s3.34,26.34,9.58,35.35c8.7,12.6,22.75,19.8,40.36,19.8,26.54,0,45-16,46.83-40.51H557.18c-2.23,18.68-15.38,29.93-35,29.93-13.38,0-24.09-5.62-30.78-15.3-5.12-7.43-7.8-17.33-7.8-29.27,0-12.14,2.68-22,8-29.48C498.53,288.18,509.23,282.77,523.06,282.77Z"/>
    <path class="cls-1" d="M304.73,53.38c-13.61,0-24.54,3.82-31.23,10.57-5.12,5.18-7.81,11.93-7.81,20,0,16.44,10.94,24.54,29.9,28.37l14.26,2.92C323.68,118.2,331,122.7,331,133.72A18.82,18.82,0,0,1,325.91,147c-4.68,4.73-11.82,6.75-21.41,6.75-18.51,0-29.21-9.23-29.21-25.21v-.91H263.91v.91c0,22.06,14.94,35.56,39.93,35.56,13.38,0,24.3-3.83,30.77-10.58,5.12-5.17,8-11.92,8-20.7,0-15.76-10-23.64-29-27.69l-15.83-3.37c-13.16-2.93-20.52-7.43-20.52-18.23a18.21,18.21,0,0,1,5.14-13.28q7-6.75,21.41-6.76c19.17,0,29.21,9,29.21,25.44v.9h11.38v-.9C344.43,66.43,329.7,53.38,304.73,53.38Z"/>
    <polygon class="cls-1" points="24.86 12.87 27.53 12.87 31.55 27.72 111.6 161.19 129.67 161.19 129.67 3.63 118.07 3.63 118.07 151.96 115.4 151.96 111.38 136.88 31.33 3.63 13.26 3.63 13.26 161.19 24.86 161.19 24.86 12.87"/>
    <path class="cls-1" d="M202.14,164.11c23.41,0,41.48-15.08,45.71-35.56H236.7c-4.23,15.75-17.61,25-34.56,25-13.83,0-24.54-5.62-31.23-15.31-4.9-7-7.57-16.2-7.8-27.22h85v-5.63c0-32.18-18.07-52-46.61-52-16.95,0-31.45,7.42-40.14,20.25-6.46,9.23-10,21.16-10,35.34s3.34,26.33,9.58,35.33C169.58,156.91,183.63,164.11,202.14,164.11ZM170.91,79.26c6.92-9.9,17.84-15.53,30.56-15.53,20.74,0,33.67,13.73,34.79,37.37H163.57C164.46,92.31,166.91,85.11,170.91,79.26Z"/>
    <path class="cls-1" d="M378.1,129.68c0,22.06,10.47,34.43,30.77,34.43,19.63,0,31.23-13.27,31.23-36.47V108.52H428.72V127.2c0,17.56-6.69,26.33-19.85,26.33-12.7,0-19.41-9-19.41-23.85V66.88H440.1V56.3H389.46V25.24L378.1,31.09V56.3H354.23V66.88H378.1Z"/>
</svg>