<?xml version="1.0" encoding="utf-8"?>
<!-- Generator: Adobe Illustrator 16.0.0, SVG Export Plug-In . SVG Version: 6.00 Build 0)  -->
<!DOCTYPE svg PUBLIC "-//W3C//DTD SVG 1.1//EN" "http://www.w3.org/Graphics/SVG/1.1/DTD/svg11.dtd">
<svg version="1.1" xmlns="http://www.w3.org/2000/svg" xmlns:xlink="http://www.w3.org/1999/xlink" x="0px" y="0px" width="600px"
	 height="600px" viewBox="0 0 600 600" enable-background="new 0 0 600 600" xml:space="preserve">
<g id="Layer_2">
</g>
<g id="Layer_3">
</g>
<g id="Layer_4">
	<g>
		<path fill="#EC008C" d="M164.514,276.427l-11.156-0.023l0.008-3.312c-2.658,2.753-6.361,4.329-10.758,4.316
			c-8.166-0.014-13.588-5.752-13.572-14.438l0.055-21.229l11.098,0.025l-0.051,18.886c-0.008,4.065,2.428,6.833,5.984,6.84
			c4.398,0.009,7.264-2.947,7.277-9.637l0.041-16.057l11.162,0.027L164.514,276.427z"/>
		<path fill="#EC008C" d="M197.061,261.825l10.254,2.229c-1.766,8.202-9.174,13.49-17.9,13.468
			c-10.465-0.026-19.1-7.422-19.072-18.38c0.027-10.893,8.697-18.316,19.164-18.289c8.508,0.02,15.895,5.207,17.83,13.341
			l-10.475,2.46c-0.967-4.206-3.822-6.144-7.377-6.15c-5.029-0.014-8.385,3.628-8.395,8.666c-0.012,5.097,3.328,8.692,8.344,8.699
			C192.996,267.881,195.865,266.025,197.061,261.825"/>
		<polygon fill="#EC008C" points="259.754,308.795 250.434,296.986 245.113,302.9 245.096,308.76 233.934,308.731 234.061,255.653 
			245.229,255.68 245.145,288.01 257.813,274.185 270.855,274.214 257.92,288.661 273.496,308.827 		"/>
		<polygon fill="#EC008C" points="280.182,308.842 280.27,274.234 291.432,274.262 291.35,308.865 		"/>
		<path fill="#EC008C" d="M337.861,287.738l-0.055,21.231l-11.096-0.027l0.049-18.884c0.014-4.069-2.426-6.832-5.982-6.84
			c-4.395-0.009-7.266,2.948-7.281,9.631l-0.041,16.063l-11.16-0.027l0.08-34.602l11.168,0.028l-0.012,3.307
			c2.666-2.752,6.363-4.33,10.758-4.316C332.455,273.317,337.879,279.053,337.861,287.738"/>
		<path fill="#EC008C" d="M384.545,309.762c-0.027,10.689-9.248,16.529-20.625,16.499c-8.023-0.021-14.086-2.79-17.49-8.38
			l9.295-5.633c2.572,3.107,4.59,4.285,8.219,4.293c5.021,0.013,9.426-2.461,9.441-7.904l0.004-2.341
			c-2.725,2.405-6.359,3.774-10.893,3.762c-9.283-0.021-17.076-7.415-17.049-18.375c0.021-10.892,7.857-18.319,17.133-18.295
			c4.543,0.013,8.166,1.397,10.883,3.818l0.002-2.761l11.168,0.026L384.545,309.762z M373.426,291.748
			c0.012-5.309-4.031-8.968-8.564-8.983c-4.883-0.009-8.449,3.634-8.461,8.945c-0.014,5.376,3.539,8.969,8.422,8.979
			C369.355,300.701,373.412,297.126,373.426,291.748"/>
		<polygon fill="#EC008C" points="76.449,278.787 101.309,278.787 101.309,290.053 76.449,290.053 76.449,308.827 63.381,308.827 
			63.381,256.419 104.398,256.419 104.398,267.757 76.449,267.757 		"/>
		<path fill="#EC008C" d="M384.545,309.762c-0.027,10.689-9.248,16.529-20.625,16.499c-8.023-0.021-14.086-2.79-17.49-8.38
			l9.295-5.633c2.572,3.107,4.59,4.285,8.219,4.293c5.021,0.013,9.426-2.461,9.441-7.904l0.004-2.341
			c-2.725,2.405-6.359,3.774-10.893,3.762c-9.283-0.021-17.076-7.415-17.049-18.375c0.021-10.892,7.857-18.319,17.133-18.295
			c4.543,0.013,8.166,1.397,10.883,3.818l0.002-2.761l11.168,0.026L384.545,309.762z M373.426,291.748
			c0.012-5.309-4.031-8.968-8.564-8.983c-4.883-0.009-8.449,3.634-8.461,8.945c-0.014,5.376,3.539,8.969,8.422,8.979
			C369.355,300.701,373.412,297.126,373.426,291.748"/>
		<path fill="#EC008C" d="M233.9,366.104v21.646h-10.959v-19.304c0-3.925-2.553-6.403-5.795-6.403c-4.068,0-6.756,2.958-6.756,8.746
			v16.961h-11.025v-19.304c0-3.925-2.551-6.403-5.861-6.403c-3.998,0-6.615,2.958-6.615,8.746v16.961h-11.029v-34.603h11.029v3.171
			c2.342-2.619,5.721-4.205,10.201-4.205c4.826,0,8.961,2.07,11.305,5.857c2.756-3.583,6.891-5.857,12.27-5.857
			C228.037,352.113,233.9,357.694,233.9,366.104"/>
		<polygon fill="#EC008C" points="337.848,387.75 305.869,387.75 305.869,380.651 323.234,361.902 306.283,361.902 306.283,353.147 
			337.229,353.147 337.229,360.384 319.861,378.995 337.848,378.995 		"/>
		<rect x="358.73" y="353.147" fill="#EC008C" width="11.033" height="34.603"/>
		<path fill="#EC008C" d="M427.188,366.52v21.23h-10.965v-18.889c0-4.068-2.408-6.818-5.926-6.818c-4.342,0-7.17,2.958-7.17,9.646
			v16.062h-11.023v-34.603h11.023v3.305c2.619-2.753,6.275-4.339,10.617-4.339C421.807,352.113,427.188,357.837,427.188,366.52"/>
		<path fill="#EC008C" d="M484.885,388.438c0,10.685-9.102,16.545-20.33,16.545c-7.93,0-13.932-2.758-17.309-8.342l9.164-5.651
			c2.561,3.102,4.555,4.273,8.145,4.273c4.959,0,9.301-2.48,9.301-7.93v-2.344c-2.689,2.417-6.27,3.795-10.754,3.795
			c-9.17,0-16.891-7.377-16.891-18.34c0-10.887,7.721-18.331,16.891-18.331c4.484,0,8.064,1.378,10.754,3.789v-2.755h11.029V388.438
			z M473.855,370.444c0-5.307-3.998-8.956-8.48-8.956c-4.822,0-8.338,3.649-8.338,8.956c0,5.379,3.516,8.961,8.338,8.961
			C469.857,379.405,473.855,375.823,473.855,370.444"/>
		<path fill="#EC008C" d="M289.301,353.198l-11.166-0.027v0.461c-0.041-0.098-0.082-0.15-0.082-0.098l0.008,2.345
			c-0.074-0.067-0.166-0.112-0.242-0.182c-0.615-0.517-1.254-0.998-1.947-1.408c-0.307-0.183-0.66-0.301-0.982-0.462
			c-0.514-0.25-1.004-0.524-1.555-0.718c-0.52-0.186-1.094-0.291-1.645-0.429c-0.418-0.099-0.803-0.241-1.238-0.309
			c-0.629-0.104-1.309-0.119-1.979-0.161c-0.41-0.028-0.787-0.098-1.219-0.098c-0.012,0-0.025,0.002-0.025,0.002
			c-0.033,0-0.047-0.002-0.061-0.002c-0.402,0-0.801,0.03-1.197,0.063c-0.152,0.007-0.305,0.007-0.455,0.022
			c-7.941,0.778-14.443,7.018-15.297,16.175c0,0.013-0.008,0.021-0.008,0.033c-0.041,0.422-0.047,0.858-0.061,1.288
			c-0.006,0.241-0.031,0.472-0.031,0.71v0.046v0.037c0,0.246,0.025,0.476,0.031,0.713c0.014,0.43,0.02,0.864,0.061,1.286
			c0,0.016,0.008,0.022,0.008,0.038c0.854,9.154,7.355,15.392,15.297,16.175c0.15,0.016,0.303,0.013,0.455,0.02
			c0.396,0.033,0.795,0.065,1.197,0.065h0.027h0.059c0.432,0,0.809-0.072,1.219-0.1c0.67-0.04,1.35-0.056,1.979-0.156
			c0.436-0.073,0.82-0.216,1.238-0.313c0.551-0.138,1.125-0.241,1.645-0.425c0.551-0.195,1.041-0.47,1.555-0.723
			c0.322-0.155,0.676-0.276,0.982-0.46c0.693-0.409,1.332-0.894,1.947-1.414c0.076-0.06,0.168-0.107,0.242-0.177l-0.008,2.344
			c0,0.052,0.041,0.003,0.082-0.098v0.46l11.166-0.027V353.198z M277.973,371.768c-0.021,0.189-0.02,0.393-0.055,0.576
			c-0.83,4.251-4.416,7.048-8.385,7.061c-4.742,0.012-8.221-3.446-8.424-8.515c-0.004-0.153-0.033-0.289-0.033-0.439
			c0-0.158,0.029-0.293,0.033-0.445c0.203-5.065,3.682-8.526,8.424-8.514c3.969,0.008,7.555,2.814,8.385,7.065
			c0.035,0.181,0.033,0.382,0.055,0.567c0.057,0.439,0.123,0.862,0.123,1.326C278.096,370.907,278.029,371.338,277.973,371.768"/>
		<path fill="#EC008C" d="M145.938,387.75l-3.236-8.409H123.26l-3.238,8.409H107.82l19.299-46.186h11.654l19.297,46.186H145.938z
			 M132.979,354.388l-5.859,15.166h11.787L132.979,354.388z"/>
		<rect x="107.82" y="298.863" fill="#EC008C" width="116.129" height="9.927"/>
		<polygon fill="#EC008C" points="466.855,281.463 475.414,266.189 468.477,262.301 459.916,277.589 		"/>
		
			<rect x="448.384" y="237.411" transform="matrix(-0.013 -0.9999 0.9999 -0.013 212.0997 701.6965)" fill="#EC008C" width="7.947" height="17.519"/>
		<polygon fill="#EC008C" points="514.262,201.222 505.293,216.264 512.123,220.334 521.094,205.286 		"/>
		<polygon fill="#EC008C" points="536.502,240.984 536.619,233.045 519.098,232.807 518.998,240.754 		"/>
		<polygon fill="#EC008C" points="450.447,269.077 446.428,262.122 529.418,214.207 533.434,221.169 		"/>
		<polygon fill="#EC008C" points="450.447,269.077 446.428,262.122 529.418,214.207 533.434,221.169 		"/>
		<path fill="#EC008C" d="M493.197,213.941l4.789-17.869c-3.096-0.698-6.285-1.055-9.516-1.055
			c-19.691,0-36.41,12.961-42.084,30.806l17.889,4.791c3.529-9.969,13.035-17.129,24.195-17.129
			C490.074,213.485,491.646,213.651,493.197,213.941"/>
		<rect x="497.98" y="253.356" fill="#EC008C" width="16.025" height="16.032"/>
		<polygon fill="#EC008C" points="505.996,285.421 497.98,285.421 505.996,269.389 514.014,269.389 		"/>
	</g>
</g>
</svg>
