<?xml version="1.0" encoding="UTF-8"?>
<svg width="900px" height="419px" viewBox="0 0 900 419" version="1.1" xmlns="http://www.w3.org/2000/svg" xmlns:xlink="http://www.w3.org/1999/xlink">
    <!-- Generator: Sketch 48.1 (47250) - http://www.bohemiancoding.com/sketch -->
    <title>logo-black</title>
    <desc>Created with Sketch.</desc>
    <defs>
        <polygon id="path-1" points="0 0.4984 253.2136 0.4984 253.2136 336.2854 0 336.2854"></polygon>
        <polygon id="path-3" points="0.9781 0.2427 284 0.2427 284 161.2857 0.9781 161.2857"></polygon>
    </defs>
    <g id="Page-1" stroke="none" stroke-width="1" fill="none" fill-rule="evenodd">
        <g id="logo-black">
            <path d="M353.9081,414.6433 C341.8081,414.6433 334.1361,393.0703 320.8541,343.7243 C312.5931,313.2903 308.1661,293.1963 308.1661,280.7853 C308.1661,269.2603 312.8861,263.9403 320.2641,263.9403 C332.3641,263.9403 340.0371,285.5123 353.3191,334.8593 C361.5791,365.2973 366.0081,385.3913 366.0081,397.8013 C366.0081,409.3233 361.2881,414.6433 353.9081,414.6433 M337.0891,259.8053 C281.6011,259.8053 252.3881,296.7413 252.3881,339.2933 C252.3881,381.8413 281.6011,418.7823 337.0891,418.7823 C392.5701,418.7823 421.7891,381.8413 421.7891,339.2933 C421.7891,296.7413 392.5701,259.8053 337.0891,259.8053" id="Fill-1" fill="#000000"></path>
            <path d="M537.827,414.6433 C525.728,414.6433 518.056,393.0703 504.775,343.7243 C496.509,313.2903 492.082,293.1963 492.082,280.7853 C492.082,269.2603 496.805,263.9403 504.181,263.9403 C516.285,263.9403 523.957,285.5123 537.234,334.8593 C545.5,365.2973 549.927,385.3913 549.927,397.8013 C549.927,409.3233 545.203,414.6433 537.827,414.6433 M521.004,259.8053 C465.522,259.8053 436.304,296.7413 436.304,339.2933 C436.304,381.8413 465.522,418.7823 521.004,418.7823 C576.485,418.7823 605.706,381.8413 605.706,339.2933 C605.706,296.7413 576.485,259.8053 521.004,259.8053" id="Fill-3" fill="#000000"></path>
            <g id="PR" transform="translate(0.000000, 78.654000)">
                <mask id="mask-2" fill="white">
                    <use xlink:href="#path-1"></use>
                </mask>
                <g id="Clip-6"></g>
                <path d="M93.2596,3.4554 L110.6706,3.4554 C144.0166,3.4554 156.1196,28.2774 156.1196,63.7344 C156.1196,85.9234 151.3816,103.7134 139.6656,113.9234 C126.8356,112.7824 112.5156,112.2994 96.8016,112.2994 L93.2596,112.2994 L93.2596,3.4554 Z M141.6566,168.4444 C141.6566,199.6444 131.5956,219.9484 101.8176,221.5284 L93.2596,221.5284 L93.2596,115.2564 L97.9796,115.2564 C108.9666,115.2564 117.4926,117.5854 123.9786,121.9044 C119.9786,122.9024 115.5536,123.4254 110.6706,123.4254 L101.8176,123.4254 L101.8176,126.3814 L110.6706,126.3814 C116.9996,126.3814 123.1056,126.2624 128.9826,126.0204 C138.1056,135.2244 141.6566,149.9114 141.6566,168.4444 Z M126.0166,218.6764 L126.0166,218.0874 C179.4346,215.1314 216.0306,199.4714 216.0306,165.7834 C216.0306,141.7394 201.9826,127.7414 175.8996,120.1424 C211.1136,111.5814 230.4886,93.5434 230.4886,61.9644 C230.4886,14.3884 186.5176,0.4984 110.6706,0.4984 L-0.0004,0.4984 L-0.0004,3.4554 L24.4956,3.4554 L24.4956,112.2994 L-0.0004,112.2994 L-0.0004,115.2564 L24.4956,115.2564 L24.4956,221.5284 L-0.0004,221.5284 L-0.0004,224.4854 L24.4956,224.4854 L24.4956,333.3284 L-0.0004,333.3284 L-0.0004,336.2854 L117.7556,336.2854 L117.7556,333.3284 L93.2596,333.3284 L93.2596,224.5884 L102.1136,224.5884 L173.2376,336.2854 L253.2136,336.2854 L210.4206,270.3904 C192.1226,242.3154 175.8926,220.1554 126.0166,218.6764 Z" id="Fill-5" fill="#000000" mask="url(#mask-2)"></path>
            </g>
            <polygon id="Fill-8" fill="#000000" points="335.1464 237.5989 316.5524 237.5989 316.5524 79.5089 235.0964 118.2189 235.0964 119.3999 253.6904 136.2459 253.6904 237.5989 235.0964 237.5989 235.0964 240.5559 335.1464 240.5559"></polygon>
            <path d="M440.8124,237.5989 L422.2184,237.5989 L422.2184,137.1309 C422.2184,112.3099 426.0564,101.6739 436.6814,101.6739 C447.3024,101.6739 450.8484,112.3099 450.8484,137.1309 L450.8484,240.5559 L532.2994,240.5559 L532.2994,237.5989 L513.7064,237.5989 L513.7064,140.3809 C513.7064,106.6929 498.6584,85.4219 466.7834,85.4219 C446.1254,85.4219 426.9424,93.1009 422.2184,112.9029 L422.2184,79.5089 L340.7664,118.2189 L340.7664,119.3999 L359.3564,136.2459 L359.3564,237.5989 L340.7664,237.5989 L340.7664,240.5559 L440.8124,240.5559 L440.8124,237.5989 Z" id="Fill-10" fill="#000000"></path>
            <polygon id="Fill-12" fill="#000000" points="725.5194 240.8901 678.2984 156.3791 611.3104 156.3791 626.0674 133.9211 683.9074 133.9211 708.7004 92.5501 649.6764 92.5501 610.4214 152.5371 610.4214 16.9051 528.9694 16.9051 528.9694 19.8611 547.5634 19.8611 547.5634 240.8901 610.4214 240.8901 610.4214 161.1061 654.9864 240.8901"></polygon>
            <path d="M283.2762,73.2839 C303.6412,73.2839 320.1682,56.7379 320.1682,36.3479 C320.1682,16.2529 303.6412,0.000899999999 283.2762,0.000899999999 C263.2082,0.000899999999 246.9772,16.2529 246.9772,36.3479 C246.9772,56.7379 263.2082,73.2839 283.2762,73.2839" id="Fill-14" fill="#000000"></path>
            <g id="m" transform="translate(616.000000, 253.654000)">
                <mask id="mask-4" fill="white">
                    <use xlink:href="#path-3"></use>
                </mask>
                <g id="Clip-17"></g>
                <path d="M265.4061,158.3287 L265.4061,61.1107 C265.4061,27.4277 250.3541,6.1517 218.4821,6.1517 C197.2321,6.1517 174.5081,14.1277 171.8501,40.1307 C166.8351,19.4477 152.3751,6.1517 126.9931,6.1517 C106.3361,6.1517 87.1531,13.8347 82.4301,33.6327 L82.4301,0.2427 L0.9781,38.9487 L0.9781,40.1307 L19.5681,56.9757 L19.5681,158.3287 L0.9781,158.3287 L0.9781,161.2857 L101.0241,161.2857 L101.0241,158.3287 L82.4301,158.3287 L82.4301,57.8617 C82.4301,33.0397 86.2631,22.4037 96.8931,22.4037 C107.5141,22.4037 111.0561,33.0397 111.0561,57.8617 L111.0561,161.2857 L192.5111,161.2857 L192.5111,158.3287 L173.9181,158.3287 L173.9181,57.8617 C173.9181,33.0397 177.7561,22.4037 188.3811,22.4037 C199.0031,22.4037 202.5441,33.0397 202.5441,57.8617 L202.5441,161.2857 L284.0001,161.2857 L284.0001,158.3287 L265.4061,158.3287 Z" id="Fill-16" fill="#000000" mask="url(#mask-4)"></path>
            </g>
        </g>
    </g>
</svg>