<svg width="93" height="49" viewBox="0 0 93 49" fill="none" xmlns="http://www.w3.org/2000/svg">
<path d="M17.6214 23.1475C17.9598 23.1475 18.1209 22.9864 18.2176 22.6641L21.1341 12.6739C21.2308 12.3677 21.118 12.1904 20.7796 12.1904H19.0394C18.701 12.1904 18.556 12.3677 18.4754 12.6739L17.2508 17.1856C17.0091 18.0879 16.7996 19.8121 16.7996 19.8121C16.7996 19.8121 16.6385 18.0879 16.3968 17.1856L15.1883 12.6739C15.1077 12.3677 14.9627 12.1904 14.6243 12.1904H12.7229C12.3846 12.1904 12.2718 12.3677 12.3684 12.6739L15.285 22.6641C15.3817 22.9864 15.5428 23.1475 15.8812 23.1475H17.6214Z" fill="black"/>
<path d="M29.0685 23.1475C29.4068 23.1475 29.5519 23.0186 29.5519 22.6803V21.4234C29.5519 21.085 29.4068 20.9722 29.0685 20.9722H25.588V18.5552H28.6495C28.9879 18.5552 29.1329 18.4263 29.1329 18.0879V16.9117C29.1329 16.5733 28.9879 16.4605 28.6495 16.4605H25.588V14.3658H28.9073C29.2457 14.3658 29.3907 14.2368 29.3907 13.8985V12.6416C29.3907 12.3032 29.2457 12.1904 28.9073 12.1904H23.3965C23.0582 12.1904 22.9293 12.3355 22.9293 12.6739V22.6641C22.9293 23.0025 23.0582 23.1475 23.3965 23.1475H29.0685Z" fill="black"/>
<path d="M39.7655 16.3477V14.9458C39.7655 13.5601 38.702 12.1904 35.6727 12.1904H32.1922C31.8538 12.1904 31.7249 12.3355 31.7249 12.6739V22.6641C31.7249 23.0025 31.8538 23.1475 32.1922 23.1475H33.9324C34.2708 23.1475 34.3836 23.0025 34.3836 22.6641V19.1031H35.5921L37.0101 22.6641C37.1068 22.8897 37.1712 23.1475 37.4774 23.1475H39.2176C39.5721 23.1475 39.7816 22.9542 39.6688 22.6641L38.0897 18.7003C39.2982 18.1846 39.7655 17.2662 39.7655 16.3477ZM35.6727 14.3658C36.4622 14.3658 37.139 14.6719 37.139 15.4131V15.8804C37.139 16.6216 36.4622 16.9278 35.6727 16.9278H34.3836V14.3658H35.6727Z" fill="black"/>
<path d="M47.09 15.4131C47.09 15.7515 47.2028 15.8965 47.5412 15.8965H49.217C49.5554 15.8965 49.6843 15.7515 49.6843 15.4131V14.8169C49.6843 13.4312 48.7819 12.0615 45.8009 12.0615C42.82 12.0615 41.9821 13.4312 41.9821 14.8169V15.7515C41.9821 16.6861 42.6588 17.5884 43.4806 17.8946L45.8009 18.7647C46.4132 18.9903 47.1867 19.2642 47.1867 19.8443V20.1666C47.1867 20.9078 46.5422 21.1817 45.7526 21.1817C44.963 21.1817 44.3346 20.9078 44.3346 20.1666V19.4415C44.3346 19.1031 44.2218 18.9581 43.8835 18.9581H42.2077C41.8693 18.9581 41.7404 19.1031 41.7404 19.4415V20.5211C41.7404 21.9068 42.7555 23.2765 45.7848 23.2765C48.8141 23.2765 49.7971 21.9068 49.7971 20.5211V19.377C49.7971 18.1846 48.9753 17.3467 47.7829 16.9439L45.0758 16.0254C44.8986 15.961 44.5602 15.7676 44.5602 15.3326V15.1714C44.5602 14.4302 45.092 14.1563 45.8332 14.1563C46.5744 14.1563 47.09 14.4302 47.09 15.1714V15.4131Z" fill="black"/>
<path d="M56.4389 12.1904H54.6987C54.3603 12.1904 54.1992 12.3516 54.1025 12.6739L51.186 22.6641C51.0893 22.9703 51.2021 23.1475 51.5405 23.1475H53.1679C53.5063 23.1475 53.6513 22.9703 53.7319 22.6641L54.1508 21.1173H56.8256L57.2446 22.6641C57.3252 22.9703 57.4702 23.1475 57.8086 23.1475H59.5971C59.9355 23.1475 60.0483 22.9703 59.9516 22.6641L57.0351 12.6739C56.9384 12.3516 56.7773 12.1904 56.4389 12.1904ZM56.2456 19.0225H54.7309L54.9726 18.1524C55.2304 17.2178 55.4882 15.0103 55.5205 14.7847C55.5366 14.9297 55.7622 17.1695 56.02 18.1524L56.2456 19.0225ZM57.9536 9.4834C58.1469 9.20947 58.0503 9 57.7119 9H55.9877C55.6494 9 55.456 9.19336 55.3271 9.4834L54.6826 10.9658C54.5375 11.3042 54.6503 11.4331 54.9404 11.4331H56.2133C56.5517 11.4331 56.7451 11.2559 56.8418 11.1109L57.9536 9.4834Z" fill="black"/>
<path d="M60.5111 12.1904C60.1727 12.1904 60.0277 12.3032 60.0277 12.6416V13.8985C60.0277 14.2368 60.1727 14.3658 60.5111 14.3658H62.5736V22.6641C62.5736 23.0025 62.7025 23.1475 63.0409 23.1475H64.7811C65.1195 23.1475 65.2323 23.0025 65.2323 22.6641V14.3658H67.2948C67.6332 14.3658 67.7782 14.2368 67.7782 13.8985V12.6416C67.7782 12.3032 67.6332 12.1904 67.2948 12.1904H60.5111Z" fill="black"/>
<path d="M72.1783 12.6739C72.1783 12.3355 72.0655 12.1904 71.7271 12.1904H69.9869C69.6485 12.1904 69.5196 12.3355 69.5196 12.6739V22.6641C69.5196 23.0025 69.6485 23.1475 69.9869 23.1475H71.7271C72.0655 23.1475 72.1783 23.0025 72.1783 22.6641V12.6739Z" fill="black"/>
<path d="M77.4177 12.6739C77.4177 12.3355 77.3049 12.1904 76.9665 12.1904H75.2262C74.8879 12.1904 74.759 12.3355 74.759 12.6739V22.6641C74.759 22.9864 74.8717 23.1475 75.1618 23.1475H80.5759C80.9143 23.1475 81.0593 23.0186 81.0593 22.6803V21.4234C81.0593 21.085 80.9143 20.9722 80.5759 20.9722H77.4177V12.6739Z" fill="black"/>
<path d="M16.9278 34.5382C16.9278 34.1998 16.815 34.0548 16.4766 34.0548H14.8169C14.4785 34.0548 14.3496 34.1998 14.3496 34.5382V35.0538C14.3496 35.795 13.7857 36.1011 12.9961 36.1011C12.2066 36.1011 11.6587 35.795 11.6587 35.0538V30.2842C11.6587 29.543 12.2066 29.2368 12.9961 29.2368C13.7857 29.2368 14.3496 29.543 14.3496 30.2842V30.5581C14.3496 30.8965 14.4785 31.0415 14.8169 31.0415H16.4766C16.815 31.0415 16.9278 30.8965 16.9278 30.5581V29.8169C16.9278 28.4312 15.9932 27.0615 12.9639 27.0615C9.93458 27.0615 9 28.4312 9 29.8169V35.5211C9 36.9068 9.93458 38.2765 12.9639 38.2765C15.9932 38.2765 16.9278 36.9068 16.9278 35.5211V34.5382Z" fill="black"/>
<path d="M18.9443 35.5211C18.9443 36.9068 20.0239 38.2765 23.0533 38.2765C26.0826 38.2765 27.1783 36.9068 27.1783 35.5211V29.8169C27.1783 28.4312 26.0826 27.0615 23.0533 27.0615C20.0239 27.0615 18.9443 28.4312 18.9443 29.8169V35.5211ZM24.5196 35.0538C24.5196 35.795 23.8428 36.1011 23.0533 36.1011C22.2637 36.1011 21.6031 35.795 21.6031 35.0538V30.2842C21.6031 29.543 22.2637 29.2368 23.0533 29.2368C23.8428 29.2368 24.5196 29.543 24.5196 30.2842V35.0538Z" fill="black"/>
<path d="M37.8345 27.6739C37.8345 27.3355 37.7217 27.1905 37.3833 27.1905H35.8042C35.4659 27.1905 35.3369 27.3355 35.3369 27.6739V33.1524C35.1758 32.7657 34.9663 32.2823 34.773 31.9439L32.0498 27.3838C31.9854 27.2549 31.8565 27.1905 31.647 27.1905H30.0679C29.7295 27.1905 29.6006 27.3355 29.6006 27.6739V37.6641C29.6006 38.0025 29.7295 38.1475 30.0679 38.1475H31.647C31.9854 38.1475 32.0982 38.0025 32.0982 37.6641V32.1856C32.2754 32.6368 32.5171 33.2007 32.791 33.6358L35.3692 37.922C35.4658 38.0831 35.5625 38.1475 35.8042 38.1475H37.3833C37.7217 38.1475 37.8345 38.0025 37.8345 37.6641V27.6739Z" fill="black"/>
<path d="M40.0559 27.1905C39.7175 27.1905 39.5725 27.3032 39.5725 27.6416V28.8985C39.5725 29.2368 39.7175 29.3658 40.0559 29.3658H42.1184V37.6641C42.1184 38.0025 42.2473 38.1475 42.5857 38.1475H44.3259C44.6643 38.1475 44.7771 38.0025 44.7771 37.6641V29.3658H46.8396C47.178 29.3658 47.323 29.2368 47.323 28.8985V27.6416C47.323 27.3032 47.178 27.1905 46.8396 27.1905H40.0559Z" fill="black"/>
<path d="M55.2036 38.1475C55.542 38.1475 55.687 38.0186 55.687 37.6803V36.4234C55.687 36.085 55.542 35.9722 55.2036 35.9722H51.7231V33.5552H54.7847C55.123 33.5552 55.2681 33.4263 55.2681 33.0879V31.9117C55.2681 31.5733 55.123 31.4605 54.7847 31.4605H51.7231V29.3658H55.0425C55.3809 29.3658 55.5259 29.2368 55.5259 28.8985V27.6416C55.5259 27.3032 55.3809 27.1905 55.0425 27.1905H49.5317C49.1933 27.1905 49.0644 27.3355 49.0644 27.6739V37.6641C49.0644 38.0025 49.1933 38.1475 49.5317 38.1475H55.2036Z" fill="black"/>
<path d="M63.0002 32.4918L65.8362 27.6739C65.9973 27.3999 65.949 27.1905 65.6106 27.1905H63.7737C63.4353 27.1905 63.2258 27.3999 63.0808 27.6739L61.7111 30.252L60.2448 27.6739C60.0837 27.3838 59.8903 27.1905 59.5519 27.1905H57.5539C57.2155 27.1905 57.1994 27.4483 57.3605 27.7222L60.0676 32.4595L57.2316 37.5836C57.0866 37.8414 57.1027 38.1475 57.425 38.1475H59.2941C59.6325 38.1475 59.842 37.922 59.9709 37.6641L61.405 34.8121L63.0486 37.6641C63.1936 37.922 63.3869 38.1475 63.7253 38.1475H65.7234C66.0618 38.1475 66.1101 37.922 65.9651 37.6641L63.0002 32.4918Z" fill="black"/>
<path d="M67.5601 27.1905C67.2217 27.1905 67.0767 27.3032 67.0767 27.6416V28.8985C67.0767 29.2368 67.2217 29.3658 67.5601 29.3658H69.6226V37.6641C69.6226 38.0025 69.7515 38.1475 70.0899 38.1475H71.8301C72.1685 38.1475 72.2813 38.0025 72.2813 37.6641V29.3658H74.3438C74.6822 29.3658 74.8272 29.2368 74.8272 28.8985V27.6416C74.8272 27.3032 74.6822 27.1905 74.3438 27.1905H67.5601Z" fill="black"/>
<path d="M76.3288 35.5211C76.3288 36.9068 77.4084 38.2765 80.4377 38.2765C83.467 38.2765 84.5627 36.9068 84.5627 35.5211V29.8169C84.5627 28.4312 83.467 27.0615 80.4377 27.0615C77.4084 27.0615 76.3288 28.4312 76.3288 29.8169V35.5211ZM81.904 35.0538C81.904 35.795 81.2272 36.1011 80.4377 36.1011C79.6481 36.1011 78.9875 35.795 78.9875 35.0538V30.2842C78.9875 29.543 79.6481 29.2368 80.4377 29.2368C81.2272 29.2368 81.904 29.543 81.904 30.2842V35.0538Z" fill="black"/>
</svg>
