<svg width="17" height="17" viewBox="0 0 17 17" fill="none" xmlns="http://www.w3.org/2000/svg">
<path d="M8.37256 13.472C8.2659 13.472 8.18056 13.44 8.11656 13.376C8.05256 13.312 8.02056 13.2267 8.02056 13.12V9.616H4.54856C4.4419 9.616 4.35656 9.584 4.29256 9.52C4.22856 9.456 4.19656 9.37067 4.19656 9.264V9.04C4.19656 8.93333 4.22856 8.848 4.29256 8.784C4.35656 8.72 4.4419 8.688 4.54856 8.688H8.02056V5.28C8.02056 5.17333 8.05256 5.088 8.11656 5.024C8.18056 4.96 8.2659 4.928 8.37256 4.928H8.61256C8.71923 4.928 8.80456 4.96 8.86856 5.024C8.93256 5.088 8.96456 5.17333 8.96456 5.28V8.688H12.4526C12.5592 8.688 12.6446 8.72 12.7086 8.784C12.7726 8.848 12.8046 8.93333 12.8046 9.04V9.264C12.8046 9.37067 12.7726 9.456 12.7086 9.52C12.6446 9.584 12.5592 9.616 12.4526 9.616H8.96456V13.12C8.96456 13.2267 8.93256 13.312 8.86856 13.376C8.80456 13.44 8.71923 13.472 8.61256 13.472H8.37256Z" fill="#919292"/>
<rect x="0.5" y="0.5" width="16" height="16" rx="3" stroke="#919292"/>
</svg>
