<svg width="20" height="20" viewBox="0 0 20 20" fill="none" xmlns="http://www.w3.org/2000/svg">
<path d="M10 0C4.47768 0 0 4.47768 0 10C0 15.5223 4.47768 20 10 20C15.5223 20 20 15.5223 20 10C20 4.47768 15.5223 0 10 0ZM13.9397 13.0737L13.3013 13.9442C13.2875 13.9632 13.27 13.9792 13.2499 13.9914C13.2298 14.0035 13.2075 14.0116 13.1842 14.0151C13.161 14.0187 13.1373 14.0176 13.1145 14.0119C13.0917 14.0062 13.0702 13.9961 13.0513 13.9821L9.35938 11.2902C9.33637 11.2737 9.31768 11.2519 9.30486 11.2266C9.29204 11.2014 9.28548 11.1734 9.28571 11.1451V5C9.28571 4.90179 9.36607 4.82143 9.46429 4.82143H10.5379C10.6362 4.82143 10.7165 4.90179 10.7165 5V10.5246L13.8996 12.8259C13.9799 12.8817 13.9978 12.9933 13.9397 13.0737Z" fill="#21C49C"/>
</svg>
