<svg width="20" height="23" viewBox="0 0 20 23" fill="none" xmlns="http://www.w3.org/2000/svg">
<path d="M17.1429 0H2.85714C2.09938 0 1.37266 0.247898 0.836838 0.68916C0.301019 1.13042 0 1.7289 0 2.35294V21.1765C0 21.4885 0.15051 21.7877 0.418419 22.0084C0.686328 22.229 1.04969 22.3529 1.42857 22.3529H18.5714C18.9503 22.3529 19.3137 22.229 19.5816 22.0084C19.8495 21.7877 20 21.4885 20 21.1765V2.35294C20 1.7289 19.699 1.13042 19.1632 0.68916C18.6273 0.247898 17.9006 0 17.1429 0ZM8.57143 16.4706H4.28571V14.1176H8.57143V16.4706ZM8.57143 11.7647H4.28571V9.41177H8.57143V11.7647ZM8.57143 7.05882H4.28571V4.70588H8.57143V7.05882ZM15.7143 16.4706H11.4286V14.1176H15.7143V16.4706ZM15.7143 11.7647H11.4286V9.41177H15.7143V11.7647ZM15.7143 7.05882H11.4286V4.70588H15.7143V7.05882Z" fill="#21C49C"/>
</svg>
