<svg width="68" height="68" viewBox="0 0 68 68" fill="none" xmlns="http://www.w3.org/2000/svg">
<circle cx="34" cy="34" r="34" fill="#F27178"/>
<path d="M30.1533 15.8977H38.927V16.1905H42.0955V14.6263C42.0959 13.1082 40.7678 11.873 39.1353 11.873H29.945C28.3125 11.873 26.9844 13.1082 26.9844 14.6263V16.1905H30.1533V15.8977Z" fill="white"/>
<path d="M48.3559 23.7461H20.726C19.969 23.7461 19.373 24.382 19.434 25.1251L21.7439 52.2687C21.8726 53.8386 23.2026 55.0477 24.8005 55.0477H44.281C45.8789 55.0477 47.2089 53.8386 47.3376 52.2683L49.6476 25.1251C49.7089 24.382 49.113 23.7461 48.3559 23.7461ZM27.4162 52.0482C27.3854 52.05 27.3545 52.0511 27.324 52.0511C26.5524 52.0511 26.0952 51.4596 26.0472 50.6911L24.5996 28.5829C24.5498 27.784 24.9765 27.0965 25.7875 27.0474C26.5959 26.9991 27.1067 27.6052 27.1566 28.4045L28.6038 50.5127C28.654 51.3116 28.2273 51.9987 27.4162 52.0482ZM35.8386 50.6021C35.8386 51.4021 35.3702 52.0508 34.5573 52.0508C33.7444 52.0508 33.2761 51.4021 33.2761 50.6021V28.4935C33.2761 27.6932 33.7444 27.0445 34.5573 27.0445C35.3698 27.0445 35.8386 27.6932 35.8386 28.4935V50.6021ZM44.4823 28.5788L43.1002 50.6871C43.0545 51.457 42.5961 52.0508 41.823 52.0508C41.794 52.0508 41.7646 52.05 41.7352 52.0486C40.9239 52.0013 40.4953 51.3156 40.5433 50.5168L41.925 28.4081C41.9726 27.6093 42.4763 26.9998 43.29 27.047C44.1014 27.0939 44.5299 27.78 44.4823 28.5788Z" fill="white"/>
<path d="M52.8262 19.0145L51.8636 16.3067C51.6099 15.5929 50.8978 15.1113 50.0957 15.1113H17.9044C17.1026 15.1113 16.3902 15.5929 16.1368 16.3067L15.1743 19.0145C14.9886 19.5367 15.2302 20.0694 15.6811 20.335C15.8648 20.4431 16.0823 20.5082 16.3213 20.5082H51.6791C51.9181 20.5082 52.136 20.4431 52.3193 20.3347C52.7702 20.069 53.0118 19.5364 52.8262 19.0145Z" fill="white"/>
</svg>
