<svg width="16" height="20" viewBox="0 0 16 20" fill="none" xmlns="http://www.w3.org/2000/svg">
<path d="M7.85715 0C5.77406 0.00245748 3.77699 0.831051 2.30403 2.30402C0.831059 3.77699 0.00246584 5.77405 8.3592e-06 7.85714C-0.00248656 9.55945 0.553566 11.2156 1.58287 12.5714C1.58287 12.5714 1.79715 12.8536 1.83215 12.8943L7.85715 20L13.885 12.8907C13.9164 12.8529 14.1314 12.5714 14.1314 12.5714L14.1322 12.5693C15.1609 11.214 15.7167 9.55866 15.7143 7.85714C15.7118 5.77405 14.8832 3.77699 13.4103 2.30402C11.9373 0.831051 9.94024 0.00245748 7.85715 0ZM7.85715 10.7143C7.29206 10.7143 6.73966 10.5467 6.26981 10.2328C5.79995 9.91882 5.43375 9.4726 5.2175 8.95052C5.00125 8.42845 4.94466 7.85397 5.05491 7.29974C5.16515 6.74551 5.43727 6.23642 5.83685 5.83684C6.23642 5.43726 6.74552 5.16514 7.29975 5.0549C7.85398 4.94466 8.42846 5.00124 8.95053 5.21749C9.47261 5.43374 9.91883 5.79994 10.2328 6.2698C10.5467 6.73965 10.7143 7.29205 10.7143 7.85714C10.7133 8.61461 10.412 9.34079 9.87641 9.8764C9.3408 10.412 8.61462 10.7133 7.85715 10.7143Z" fill="#21C49C"/>
</svg>
