<svg width="144" height="144" viewBox="0 0 144 144" fill="none" xmlns="http://www.w3.org/2000/svg">
<path d="M18 37.5C18 26.7304 26.7304 18 37.5 18H91.5C102.269 18 111 26.7304 111 37.5V91.5C111 95.3778 109.868 98.991 107.917 102.028L73.7646 69.7752C68.562 64.8618 60.429 64.8618 55.2266 69.7752L21.0798 102.022C19.1305 98.9868 18 95.3754 18 91.5V37.5ZM82.4832 53.978C86.619 53.978 89.9724 50.6251 89.9724 46.489C89.9724 42.3529 86.619 39 82.4832 39C78.3468 39 74.994 42.3529 74.994 46.489C74.994 50.6251 78.3468 53.978 82.4832 53.978Z" fill="#95A088"/>
<path d="M67.5866 76.3186L101.435 108.284C98.5256 110.009 95.129 111 91.5014 111H37.5014C33.8713 111 30.473 110.008 27.5625 108.281L61.4072 76.3186C63.1418 74.6806 65.8526 74.6806 67.5866 76.3186Z" fill="#95A088"/>
<path d="M52.4938 126.001C45.5897 126.001 39.5237 122.413 36.0586 117H52.3407L52.4938 117.001H94.494C106.92 117.001 116.994 106.927 116.994 94.5014V36.0667C122.407 39.5318 125.994 45.5976 125.994 52.5012V94.5014C125.994 111.898 111.891 126.001 94.494 126.001H52.4938Z" fill="#95A088"/>
</svg>
