<svg width="21" height="22" viewBox="0 0 21 22" fill="none" xmlns="http://www.w3.org/2000/svg">
<path fill-rule="evenodd" clip-rule="evenodd" d="M7.69954 0C6.53869 0.000857983 5.5992 0.942924 5.60006 2.10377C5.5992 3.26463 6.53955 4.20669 7.7004 4.20755H9.80075V2.10463C9.8016 0.943782 8.86125 0.00171597 7.69954 0C7.7004 0 7.7004 0 7.69954 0V0ZM7.69954 5.61121H2.10035C0.939494 5.61207 -0.000855639 6.55413 2.34476e-06 7.71499C-0.00171362 8.87584 0.938636 9.8179 2.09949 9.81962H7.69954C8.8604 9.81876 9.80075 8.87669 9.79989 7.71584C9.80075 6.55413 8.8604 5.61207 7.69954 5.61121Z" fill="#36C5F0"/>
<path fill-rule="evenodd" clip-rule="evenodd" d="M20.9989 7.71499C20.9997 6.55413 20.0594 5.61207 18.8986 5.61121C17.7378 5.61207 16.7974 6.55413 16.7983 7.71499V9.81962H18.8986C20.0594 9.81876 20.9997 8.87669 20.9989 7.71499ZM15.3989 7.71499V2.10377C15.3998 0.943782 14.4603 0.00171597 13.2995 0C12.1387 0.000857983 11.1984 0.942924 11.1992 2.10377V7.71499C11.1975 8.87584 12.1378 9.8179 13.2987 9.81962C14.4595 9.81876 15.3998 8.87669 15.3989 7.71499Z" fill="#2EB67D"/>
<path fill-rule="evenodd" clip-rule="evenodd" d="M13.2995 21.0423C14.4603 21.0414 15.4007 20.0993 15.3998 18.9385C15.4007 17.7776 14.4603 16.8355 13.2995 16.8347H11.1992V18.9385C11.1984 20.0985 12.1387 21.0406 13.2995 21.0423ZM13.2995 15.4301H18.8994C20.0603 15.4293 21.0006 14.4872 20.9997 13.3263C21.0014 12.1655 20.0611 11.2234 18.9003 11.2217H13.3004C12.1395 11.2225 11.1992 12.1646 11.2001 13.3255C11.1992 14.4872 12.1387 15.4293 13.2995 15.4301Z" fill="#ECB22E"/>
<path fill-rule="evenodd" clip-rule="evenodd" d="M5.86657e-07 13.326C-0.000857397 14.4868 0.939492 15.4289 2.10034 15.4298C3.26119 15.4289 4.20154 14.4868 4.20069 13.326V11.2222H2.10034C0.939492 11.223 -0.000857397 12.1651 5.86657e-07 13.326ZM5.60006 13.326V18.9372C5.59834 20.0981 6.53869 21.0402 7.69954 21.0419C8.86039 21.041 9.80074 20.099 9.79989 18.9381V13.3277C9.8016 12.1668 8.86125 11.2247 7.7004 11.223C6.53869 11.223 5.5992 12.1651 5.60006 13.326C5.60006 13.326 5.60006 13.3268 5.60006 13.326Z" fill="#E01E5A"/>
</svg>
